<svg xmlns="http://www.w3.org/2000/svg" width="341.979" height="281.676" viewBox="0 0 341.979 281.676">
    <path id="Icon_simple-serverfault" data-name="Icon simple-serverfault" d="M341.979,249.126v37.861H272.3V249.126ZM0,247.361H163.936v37.861H0V247.361Zm183.671,0H253.35v37.861H183.671V247.361Zm88.644-60.055h69.664v37.861H272.3ZM0,185.559H163.936V223.42H0Zm183.671,0H253.35V223.42H183.671Zm88.644-55.709h69.664v37.844H272.3ZM0,128.1H163.936v37.811H0Zm183.671,0H253.35v37.811H183.671ZM272.3,68.013h69.678v37.944H272.3V68.013ZM0,66.332H163.936v37.861H0V66.332Zm183.671,0H253.35v37.861H183.671V66.332ZM272.315,7.126h69.664V45.02H272.3V7.06ZM0,5.312H163.936V43.172H0Zm183.671,0H253.35V43.172H183.671Z" transform="translate(0 -5.312)"/>
</svg>